<svg width="644" height="99" viewBox="0 0 644 99" fill="none" xmlns="http://www.w3.org/2000/svg">
<path d="M22.08 30L16.36 21.8C16.12 21.8267 15.76 21.84 15.28 21.84H8.96V30H3.76V2H15.28C17.7067 2 19.8133 2.4 21.6 3.2C23.4133 4 24.8 5.14666 25.76 6.64C26.72 8.13333 27.2 9.90667 27.2 11.96C27.2 14.0667 26.68 15.88 25.64 17.4C24.6267 18.92 23.16 20.0533 21.24 20.8L27.68 30H22.08ZM21.96 11.96C21.96 10.1733 21.3733 8.8 20.2 7.84C19.0267 6.88 17.3067 6.4 15.04 6.4H8.96V17.56H15.04C17.3067 17.56 19.0267 17.08 20.2 16.12C21.3733 15.1333 21.96 13.7467 21.96 11.96ZM53.0178 19.44C53.0178 19.7867 52.9911 20.28 52.9378 20.92H36.1778C36.4711 22.4933 37.2311 23.7467 38.4578 24.68C39.7111 25.5867 41.2578 26.04 43.0978 26.04C45.4445 26.04 47.3778 25.2667 48.8978 23.72L51.5778 26.8C50.6178 27.9467 49.4045 28.8133 47.9378 29.4C46.4711 29.9867 44.8178 30.28 42.9778 30.28C40.6311 30.28 38.5645 29.8133 36.7778 28.88C34.9911 27.9467 33.6045 26.6533 32.6178 25C31.6578 23.32 31.1778 21.4267 31.1778 19.32C31.1778 17.24 31.6445 15.3733 32.5778 13.72C33.5378 12.04 34.8578 10.7333 36.5378 9.8C38.2178 8.86667 40.1111 8.4 42.2178 8.4C44.2978 8.4 46.1511 8.86667 47.7778 9.8C49.4311 10.7067 50.7111 12 51.6178 13.68C52.5511 15.3333 53.0178 17.2533 53.0178 19.44ZM42.2178 12.4C40.6178 12.4 39.2578 12.88 38.1378 13.84C37.0445 14.7733 36.3778 16.0267 36.1378 17.6H48.2578C48.0445 16.0533 47.3911 14.8 46.2978 13.84C45.2045 12.88 43.8445 12.4 42.2178 12.4ZM68.0206 30.28C65.8073 30.28 63.8206 29.8133 62.0606 28.88C60.3006 27.9467 58.9273 26.6533 57.9406 25C56.954 23.32 56.4606 21.4267 56.4606 19.32C56.4606 17.2133 56.954 15.3333 57.9406 13.68C58.9273 12.0267 60.2873 10.7333 62.0206 9.8C63.7806 8.86667 65.7806 8.4 68.0206 8.4C70.1273 8.4 71.9673 8.82667 73.5406 9.68C75.1406 10.5333 76.3406 11.76 77.1406 13.36L73.3006 15.6C72.6873 14.6133 71.914 13.88 70.9806 13.4C70.074 12.8933 69.074 12.64 67.9806 12.64C66.114 12.64 64.5673 13.2533 63.3406 14.48C62.114 15.68 61.5006 17.2933 61.5006 19.32C61.5006 21.3467 62.1006 22.9733 63.3006 24.2C64.5273 25.4 66.0873 26 67.9806 26C69.074 26 70.074 25.76 70.9806 25.28C71.914 24.7733 72.6873 24.0267 73.3006 23.04L77.1406 25.28C76.314 26.88 75.1006 28.12 73.5006 29C71.9273 29.8533 70.1006 30.28 68.0206 30.28ZM101.589 8.64L91.5894 31.72C90.656 34.04 89.5227 35.6667 88.1894 36.6C86.856 37.56 85.2427 38.04 83.3494 38.04C82.2827 38.04 81.2294 37.8667 80.1894 37.52C79.1494 37.1733 78.296 36.6933 77.6294 36.08L79.6294 32.4C80.1094 32.8533 80.6694 33.2133 81.3094 33.48C81.976 33.7467 82.6427 33.88 83.3094 33.88C84.1894 33.88 84.9094 33.6533 85.4694 33.2C86.056 32.7467 86.5894 31.9867 87.0694 30.92L87.4294 30.08L78.1094 8.64H83.3094L90.0294 24.44L96.7894 8.64H101.589ZM114.328 30.28C112.115 30.28 110.128 29.8133 108.368 28.88C106.608 27.9467 105.235 26.6533 104.248 25C103.262 23.32 102.768 21.4267 102.768 19.32C102.768 17.2133 103.262 15.3333 104.248 13.68C105.235 12.0267 106.595 10.7333 108.328 9.8C110.088 8.86667 112.088 8.4 114.328 8.4C116.435 8.4 118.275 8.82667 119.848 9.68C121.448 10.5333 122.648 11.76 123.448 13.36L119.608 15.6C118.995 14.6133 118.222 13.88 117.288 13.4C116.382 12.8933 115.382 12.64 114.288 12.64C112.422 12.64 110.875 13.2533 109.648 14.48C108.422 15.68 107.808 17.2933 107.808 19.32C107.808 21.3467 108.408 22.9733 109.608 24.2C110.835 25.4 112.395 26 114.288 26C115.382 26 116.382 25.76 117.288 25.28C118.222 24.7733 118.995 24.0267 119.608 23.04L123.448 25.28C122.622 26.88 121.408 28.12 119.808 29C118.235 29.8533 116.408 30.28 114.328 30.28ZM127.975 0.319998H132.975V30H127.975V0.319998ZM160.018 19.44C160.018 19.7867 159.991 20.28 159.938 20.92H143.178C143.471 22.4933 144.231 23.7467 145.458 24.68C146.711 25.5867 148.258 26.04 150.098 26.04C152.444 26.04 154.378 25.2667 155.898 23.72L158.578 26.8C157.618 27.9467 156.404 28.8133 154.938 29.4C153.471 29.9867 151.818 30.28 149.978 30.28C147.631 30.28 145.564 29.8133 143.778 28.88C141.991 27.9467 140.604 26.6533 139.618 25C138.658 23.32 138.178 21.4267 138.178 19.32C138.178 17.24 138.644 15.3733 139.578 13.72C140.538 12.04 141.858 10.7333 143.538 9.8C145.218 8.86667 147.111 8.4 149.218 8.4C151.298 8.4 153.151 8.86667 154.778 9.8C156.431 10.7067 157.711 12 158.618 13.68C159.551 15.3333 160.018 17.2533 160.018 19.44ZM149.218 12.4C147.618 12.4 146.258 12.88 145.138 13.84C144.044 14.7733 143.378 16.0267 143.138 17.6H155.258C155.044 16.0533 154.391 14.8 153.298 13.84C152.204 12.88 150.844 12.4 149.218 12.4ZM183.275 30.28C181.542 30.28 179.849 30.0533 178.195 29.6C176.542 29.1467 175.222 28.5733 174.235 27.88L176.155 24.08C177.115 24.72 178.262 25.24 179.595 25.64C180.955 26.0133 182.289 26.2 183.595 26.2C186.582 26.2 188.075 25.4133 188.075 23.84C188.075 23.0933 187.689 22.5733 186.915 22.28C186.169 21.9867 184.955 21.7067 183.275 21.44C181.515 21.1733 180.075 20.8667 178.955 20.52C177.862 20.1733 176.902 19.5733 176.075 18.72C175.275 17.84 174.875 16.6267 174.875 15.08C174.875 13.0533 175.715 11.44 177.395 10.24C179.102 9.01333 181.395 8.4 184.275 8.4C185.742 8.4 187.209 8.57333 188.675 8.92C190.142 9.24 191.342 9.68 192.275 10.24L190.355 14.04C188.542 12.9733 186.502 12.44 184.235 12.44C182.769 12.44 181.649 12.6667 180.875 13.12C180.129 13.5467 179.755 14.12 179.755 14.84C179.755 15.64 180.155 16.2133 180.955 16.56C181.782 16.88 183.049 17.1867 184.755 17.48C186.462 17.7467 187.862 18.0533 188.955 18.4C190.049 18.7467 190.982 19.3333 191.755 20.16C192.555 20.9867 192.955 22.16 192.955 23.68C192.955 25.68 192.089 27.28 190.355 28.48C188.622 29.68 186.262 30.28 183.275 30.28ZM207.461 30.28C205.248 30.28 203.261 29.8133 201.501 28.88C199.741 27.9467 198.368 26.6533 197.381 25C196.395 23.32 195.901 21.4267 195.901 19.32C195.901 17.2133 196.395 15.3333 197.381 13.68C198.368 12.0267 199.728 10.7333 201.461 9.8C203.221 8.86667 205.221 8.4 207.461 8.4C209.568 8.4 211.408 8.82667 212.981 9.68C214.581 10.5333 215.781 11.76 216.581 13.36L212.741 15.6C212.128 14.6133 211.355 13.88 210.421 13.4C209.515 12.8933 208.515 12.64 207.421 12.64C205.555 12.64 204.008 13.2533 202.781 14.48C201.555 15.68 200.941 17.2933 200.941 19.32C200.941 21.3467 201.541 22.9733 202.741 24.2C203.968 25.4 205.528 26 207.421 26C208.515 26 209.515 25.76 210.421 25.28C211.355 24.7733 212.128 24.0267 212.741 23.04L216.581 25.28C215.755 26.88 214.541 28.12 212.941 29C211.368 29.8533 209.541 30.28 207.461 30.28ZM226.063 11.76C227.503 9.52 230.037 8.4 233.663 8.4V13.16C233.237 13.08 232.85 13.04 232.503 13.04C230.557 13.04 229.037 13.6133 227.943 14.76C226.85 15.88 226.303 17.5067 226.303 19.64V30H221.303V8.64H226.063V11.76ZM246.348 8.4C249.494 8.4 251.894 9.16 253.548 10.68C255.228 12.1733 256.068 14.44 256.068 17.48V30H251.348V27.4C250.734 28.3333 249.854 29.0533 248.708 29.56C247.588 30.04 246.228 30.28 244.628 30.28C243.028 30.28 241.628 30.0133 240.428 29.48C239.228 28.92 238.294 28.16 237.628 27.2C236.988 26.2133 236.668 25.1067 236.668 23.88C236.668 21.96 237.374 20.4267 238.788 19.28C240.228 18.1067 242.481 17.52 245.548 17.52H251.068V17.2C251.068 15.7067 250.614 14.56 249.708 13.76C248.828 12.96 247.508 12.56 245.748 12.56C244.548 12.56 243.361 12.7467 242.188 13.12C241.041 13.4933 240.068 14.0133 239.268 14.68L237.308 11.04C238.428 10.1867 239.774 9.53333 241.348 9.08C242.921 8.62667 244.588 8.4 246.348 8.4ZM245.668 26.64C246.921 26.64 248.028 26.36 248.988 25.8C249.974 25.2133 250.668 24.3867 251.068 23.32V20.84H245.908C243.028 20.84 241.588 21.7867 241.588 23.68C241.588 24.5867 241.948 25.3067 242.668 25.84C243.388 26.3733 244.388 26.64 245.668 26.64ZM274.725 8.4C276.805 8.4 278.658 8.85333 280.285 9.76C281.938 10.6667 283.231 11.9467 284.165 13.6C285.098 15.2533 285.565 17.16 285.565 19.32C285.565 21.48 285.098 23.4 284.165 25.08C283.231 26.7333 281.938 28.0133 280.285 28.92C278.658 29.8267 276.805 30.28 274.725 30.28C271.845 30.28 269.565 29.32 267.885 27.4V37.76H262.885V8.64H267.645V11.44C268.471 10.4267 269.485 9.66667 270.685 9.16C271.911 8.65333 273.258 8.4 274.725 8.4ZM274.165 26C276.005 26 277.511 25.3867 278.685 24.16C279.885 22.9333 280.485 21.32 280.485 19.32C280.485 17.32 279.885 15.7067 278.685 14.48C277.511 13.2533 276.005 12.64 274.165 12.64C272.965 12.64 271.885 12.92 270.925 13.48C269.965 14.0133 269.205 14.7867 268.645 15.8C268.085 16.8133 267.805 17.9867 267.805 19.32C267.805 20.6533 268.085 21.8267 268.645 22.84C269.205 23.8533 269.965 24.64 270.925 25.2C271.885 25.7333 272.965 26 274.165 26ZM310.321 8.4C313.468 8.4 315.868 9.16 317.521 10.68C319.201 12.1733 320.041 14.44 320.041 17.48V30H315.321V27.4C314.708 28.3333 313.828 29.0533 312.681 29.56C311.561 30.04 310.201 30.28 308.601 30.28C307.001 30.28 305.601 30.0133 304.401 29.48C303.201 28.92 302.268 28.16 301.601 27.2C300.961 26.2133 300.641 25.1067 300.641 23.88C300.641 21.96 301.348 20.4267 302.761 19.28C304.201 18.1067 306.455 17.52 309.521 17.52H315.041V17.2C315.041 15.7067 314.588 14.56 313.681 13.76C312.801 12.96 311.481 12.56 309.721 12.56C308.521 12.56 307.335 12.7467 306.161 13.12C305.015 13.4933 304.041 14.0133 303.241 14.68L301.281 11.04C302.401 10.1867 303.748 9.53333 305.321 9.08C306.895 8.62667 308.561 8.4 310.321 8.4ZM309.641 26.64C310.895 26.64 312.001 26.36 312.961 25.8C313.948 25.2133 314.641 24.3867 315.041 23.32V20.84H309.881C307.001 20.84 305.561 21.7867 305.561 23.68C305.561 24.5867 305.921 25.3067 306.641 25.84C307.361 26.3733 308.361 26.64 309.641 26.64ZM339.698 28.84C339.111 29.32 338.391 29.68 337.538 29.92C336.711 30.16 335.831 30.28 334.898 30.28C332.551 30.28 330.738 29.6667 329.458 28.44C328.178 27.2133 327.538 25.4267 327.538 23.08V12.8H324.018V8.8H327.538V3.92H332.538V8.8H338.258V12.8H332.538V22.96C332.538 24 332.791 24.8 333.298 25.36C333.805 25.8933 334.538 26.16 335.498 26.16C336.618 26.16 337.551 25.8667 338.298 25.28L339.698 28.84ZM375.666 8.64L365.666 31.72C364.733 34.04 363.599 35.6667 362.266 36.6C360.933 37.56 359.319 38.04 357.426 38.04C356.359 38.04 355.306 37.8667 354.266 37.52C353.226 37.1733 352.373 36.6933 351.706 36.08L353.706 32.4C354.186 32.8533 354.746 33.2133 355.386 33.48C356.053 33.7467 356.719 33.88 357.386 33.88C358.266 33.88 358.986 33.6533 359.546 33.2C360.133 32.7467 360.666 31.9867 361.146 30.92L361.506 30.08L352.186 8.64H357.386L364.106 24.44L370.866 8.64H375.666ZM388.205 30.28C386.045 30.28 384.098 29.8133 382.365 28.88C380.632 27.9467 379.272 26.6533 378.285 25C377.325 23.32 376.845 21.4267 376.845 19.32C376.845 17.2133 377.325 15.3333 378.285 13.68C379.272 12.0267 380.632 10.7333 382.365 9.8C384.098 8.86667 386.045 8.4 388.205 8.4C390.392 8.4 392.352 8.86667 394.085 9.8C395.818 10.7333 397.165 12.0267 398.125 13.68C399.112 15.3333 399.605 17.2133 399.605 19.32C399.605 21.4267 399.112 23.32 398.125 25C397.165 26.6533 395.818 27.9467 394.085 28.88C392.352 29.8133 390.392 30.28 388.205 30.28ZM388.205 26C390.045 26 391.565 25.3867 392.765 24.16C393.965 22.9333 394.565 21.32 394.565 19.32C394.565 17.32 393.965 15.7067 392.765 14.48C391.565 13.2533 390.045 12.64 388.205 12.64C386.365 12.64 384.845 13.2533 383.645 14.48C382.472 15.7067 381.885 17.32 381.885 19.32C381.885 21.32 382.472 22.9333 383.645 24.16C384.845 25.3867 386.365 26 388.205 26ZM425.466 8.64V30H420.706V27.28C419.906 28.24 418.906 28.9867 417.706 29.52C416.506 30.0267 415.213 30.28 413.826 30.28C410.973 30.28 408.72 29.4933 407.066 27.92C405.44 26.32 404.626 23.96 404.626 20.84V8.64H409.626V20.16C409.626 22.08 410.053 23.52 410.906 24.48C411.786 25.4133 413.026 25.88 414.626 25.88C416.413 25.88 417.826 25.3333 418.866 24.24C419.933 23.12 420.466 21.52 420.466 19.44V8.64H425.466ZM437.173 11.76C438.613 9.52 441.146 8.4 444.773 8.4V13.16C444.346 13.08 443.959 13.04 443.613 13.04C441.666 13.04 440.146 13.6133 439.053 14.76C437.959 15.88 437.413 17.5067 437.413 19.64V30H432.413V8.64H437.173V11.76ZM481.984 0.319998V30H477.184V27.24C476.358 28.2533 475.331 29.0133 474.104 29.52C472.904 30.0267 471.571 30.28 470.104 30.28C468.051 30.28 466.198 29.8267 464.544 28.92C462.918 28.0133 461.638 26.7333 460.704 25.08C459.771 23.4 459.304 21.48 459.304 19.32C459.304 17.16 459.771 15.2533 460.704 13.6C461.638 11.9467 462.918 10.6667 464.544 9.76C466.198 8.85333 468.051 8.4 470.104 8.4C471.518 8.4 472.811 8.64 473.984 9.12C475.158 9.6 476.158 10.32 476.984 11.28V0.319998H481.984ZM470.704 26C471.904 26 472.984 25.7333 473.944 25.2C474.904 24.64 475.664 23.8533 476.224 22.84C476.784 21.8267 477.064 20.6533 477.064 19.32C477.064 17.9867 476.784 16.8133 476.224 15.8C475.664 14.7867 474.904 14.0133 473.944 13.48C472.984 12.92 471.904 12.64 470.704 12.64C469.504 12.64 468.424 12.92 467.464 13.48C466.504 14.0133 465.744 14.7867 465.184 15.8C464.624 16.8133 464.344 17.9867 464.344 19.32C464.344 20.6533 464.624 21.8267 465.184 22.84C465.744 23.8533 466.504 24.64 467.464 25.2C468.424 25.7333 469.504 26 470.704 26ZM498.525 30.28C496.365 30.28 494.419 29.8133 492.685 28.88C490.952 27.9467 489.592 26.6533 488.605 25C487.645 23.32 487.165 21.4267 487.165 19.32C487.165 17.2133 487.645 15.3333 488.605 13.68C489.592 12.0267 490.952 10.7333 492.685 9.8C494.419 8.86667 496.365 8.4 498.525 8.4C500.712 8.4 502.672 8.86667 504.405 9.8C506.139 10.7333 507.485 12.0267 508.445 13.68C509.432 15.3333 509.925 17.2133 509.925 19.32C509.925 21.4267 509.432 23.32 508.445 25C507.485 26.6533 506.139 27.9467 504.405 28.88C502.672 29.8133 500.712 30.28 498.525 30.28ZM498.525 26C500.365 26 501.885 25.3867 503.085 24.16C504.285 22.9333 504.885 21.32 504.885 19.32C504.885 17.32 504.285 15.7067 503.085 14.48C501.885 13.2533 500.365 12.64 498.525 12.64C496.685 12.64 495.165 13.2533 493.965 14.48C492.792 15.7067 492.205 17.32 492.205 19.32C492.205 21.32 492.792 22.9333 493.965 24.16C495.165 25.3867 496.685 26 498.525 26ZM524.707 30.28C522.547 30.28 520.6 29.8133 518.867 28.88C517.133 27.9467 515.773 26.6533 514.787 25C513.827 23.32 513.347 21.4267 513.347 19.32C513.347 17.2133 513.827 15.3333 514.787 13.68C515.773 12.0267 517.133 10.7333 518.867 9.8C520.6 8.86667 522.547 8.4 524.707 8.4C526.893 8.4 528.853 8.86667 530.587 9.8C532.32 10.7333 533.667 12.0267 534.627 13.68C535.613 15.3333 536.107 17.2133 536.107 19.32C536.107 21.4267 535.613 23.32 534.627 25C533.667 26.6533 532.32 27.9467 530.587 28.88C528.853 29.8133 526.893 30.28 524.707 30.28ZM524.707 26C526.547 26 528.067 25.3867 529.267 24.16C530.467 22.9333 531.067 21.32 531.067 19.32C531.067 17.32 530.467 15.7067 529.267 14.48C528.067 13.2533 526.547 12.64 524.707 12.64C522.867 12.64 521.347 13.2533 520.147 14.48C518.973 15.7067 518.387 17.32 518.387 19.32C518.387 21.32 518.973 22.9333 520.147 24.16C521.347 25.3867 522.867 26 524.707 26ZM546.048 11.76C547.488 9.52 550.021 8.4 553.648 8.4V13.16C553.221 13.08 552.834 13.04 552.488 13.04C550.541 13.04 549.021 13.6133 547.928 14.76C546.834 15.88 546.288 17.5067 546.288 19.64V30H541.288V8.64H546.048V11.76ZM564.968 30.28C563.234 30.28 561.541 30.0533 559.888 29.6C558.234 29.1467 556.914 28.5733 555.928 27.88L557.848 24.08C558.808 24.72 559.954 25.24 561.288 25.64C562.648 26.0133 563.981 26.2 565.288 26.2C568.274 26.2 569.768 25.4133 569.768 23.84C569.768 23.0933 569.381 22.5733 568.608 22.28C567.861 21.9867 566.648 21.7067 564.968 21.44C563.208 21.1733 561.768 20.8667 560.648 20.52C559.554 20.1733 558.594 19.5733 557.768 18.72C556.968 17.84 556.568 16.6267 556.568 15.08C556.568 13.0533 557.408 11.44 559.088 10.24C560.794 9.01333 563.088 8.4 565.968 8.4C567.434 8.4 568.901 8.57333 570.368 8.92C571.834 9.24 573.034 9.68 573.968 10.24L572.048 14.04C570.234 12.9733 568.194 12.44 565.928 12.44C564.461 12.44 563.341 12.6667 562.568 13.12C561.821 13.5467 561.448 14.12 561.448 14.84C561.448 15.64 561.848 16.2133 562.648 16.56C563.474 16.88 564.741 17.1867 566.448 17.48C568.154 17.7467 569.554 18.0533 570.648 18.4C571.741 18.7467 572.674 19.3333 573.448 20.16C574.248 20.9867 574.648 22.16 574.648 23.68C574.648 25.68 573.781 27.28 572.048 28.48C570.314 29.68 567.954 30.28 564.968 30.28ZM592.193 28.84C591.607 29.32 590.887 29.68 590.033 29.92C589.207 30.16 588.327 30.28 587.393 30.28C585.047 30.28 583.233 29.6667 581.953 28.44C580.673 27.2133 580.033 25.4267 580.033 23.08V12.8H576.513V8.8H580.033V3.92H585.033V8.8H590.753V12.8H585.033V22.96C585.033 24 585.287 24.8 585.793 25.36C586.3 25.8933 587.033 26.16 587.993 26.16C589.113 26.16 590.047 25.8667 590.793 25.28L592.193 28.84ZM616.083 19.44C616.083 19.7867 616.057 20.28 616.003 20.92H599.243C599.537 22.4933 600.297 23.7467 601.523 24.68C602.777 25.5867 604.323 26.04 606.163 26.04C608.51 26.04 610.443 25.2667 611.963 23.72L614.643 26.8C613.683 27.9467 612.47 28.8133 611.003 29.4C609.537 29.9867 607.883 30.28 606.043 30.28C603.697 30.28 601.63 29.8133 599.843 28.88C598.057 27.9467 596.67 26.6533 595.683 25C594.723 23.32 594.243 21.4267 594.243 19.32C594.243 17.24 594.71 15.3733 595.643 13.72C596.603 12.04 597.923 10.7333 599.603 9.8C601.283 8.86667 603.177 8.4 605.283 8.4C607.363 8.4 609.217 8.86667 610.843 9.8C612.497 10.7067 613.777 12 614.683 13.68C615.617 15.3333 616.083 17.2533 616.083 19.44ZM605.283 12.4C603.683 12.4 602.323 12.88 601.203 13.84C600.11 14.7733 599.443 16.0267 599.203 17.6H611.323C611.11 16.0533 610.457 14.8 609.363 13.84C608.27 12.88 606.91 12.4 605.283 12.4ZM633.126 8.4C635.206 8.4 637.06 8.85333 638.686 9.76C640.34 10.6667 641.633 11.9467 642.566 13.6C643.5 15.2533 643.966 17.16 643.966 19.32C643.966 21.48 643.5 23.4 642.566 25.08C641.633 26.7333 640.34 28.0133 638.686 28.92C637.06 29.8267 635.206 30.28 633.126 30.28C630.246 30.28 627.966 29.32 626.286 27.4V37.76H621.286V8.64H626.046V11.44C626.873 10.4267 627.886 9.66667 629.086 9.16C630.313 8.65333 631.66 8.4 633.126 8.4ZM632.566 26C634.406 26 635.913 25.3867 637.086 24.16C638.286 22.9333 638.886 21.32 638.886 19.32C638.886 17.32 638.286 15.7067 637.086 14.48C635.913 13.2533 634.406 12.64 632.566 12.64C631.366 12.64 630.286 12.92 629.326 13.48C628.366 14.0133 627.606 14.7867 627.046 15.8C626.486 16.8133 626.206 17.9867 626.206 19.32C626.206 20.6533 626.486 21.8267 627.046 22.84C627.606 23.8533 628.366 24.64 629.326 25.2C630.286 25.7333 631.366 26 632.566 26ZM36.6 68.64L28.72 90H23.92L18.4 75.28L12.8 90H8L0.16 68.64H4.88L10.52 84.4L16.4 68.64H20.6L26.36 84.48L32.16 68.64H36.6ZM40.4378 68.64H45.4378V90H40.4378V68.64ZM42.9578 65.12C42.0511 65.12 41.2911 64.84 40.6778 64.28C40.0645 63.6933 39.7578 62.9733 39.7578 62.12C39.7578 61.2667 40.0645 60.56 40.6778 60C41.2911 59.4133 42.0511 59.12 42.9578 59.12C43.8645 59.12 44.6245 59.4 45.2378 59.96C45.8511 60.4933 46.1578 61.1733 46.1578 62C46.1578 62.88 45.8511 63.6267 45.2378 64.24C44.6511 64.8267 43.8911 65.12 42.9578 65.12ZM65.2403 88.84C64.6536 89.32 63.9336 89.68 63.0803 89.92C62.2536 90.16 61.3736 90.28 60.4403 90.28C58.0936 90.28 56.2803 89.6667 55.0003 88.44C53.7203 87.2133 53.0803 85.4267 53.0803 83.08V72.8H49.5603V68.8H53.0803V63.92H58.0803V68.8H63.8003V72.8H58.0803V82.96C58.0803 84 58.3336 84.8 58.8403 85.36C59.347 85.8933 60.0803 86.16 61.0403 86.16C62.1603 86.16 63.0936 85.8667 63.8403 85.28L65.2403 88.84ZM81.8734 68.4C84.5668 68.4 86.7268 69.1867 88.3534 70.76C89.9801 72.3333 90.7934 74.6667 90.7934 77.76V90H85.7934V78.4C85.7934 76.5333 85.3534 75.1333 84.4734 74.2C83.5934 73.24 82.3401 72.76 80.7134 72.76C78.8734 72.76 77.4201 73.32 76.3534 74.44C75.2868 75.5333 74.7534 77.12 74.7534 79.2V90H69.7534V60.32H74.7534V71.12C75.5801 70.24 76.5934 69.5733 77.7934 69.12C79.0201 68.64 80.3801 68.4 81.8734 68.4Z" fill="#2D2D2D"/>
<path d="M121.311 68.16C123.311 68.16 125.124 68.6267 126.751 69.56C128.404 70.4667 129.698 71.76 130.631 73.44C131.564 75.0933 132.031 77.0267 132.031 79.24C132.031 81.4533 131.564 83.4 130.631 85.08C129.698 86.7333 128.404 88.0267 126.751 88.96C125.124 89.8667 123.311 90.32 121.311 90.32C118.564 90.32 116.404 89.4533 114.831 87.72V97.76H108.591V68.48H114.551V70.96C116.098 69.0933 118.351 68.16 121.311 68.16ZM120.231 85.2C121.831 85.2 123.138 84.6667 124.151 83.6C125.191 82.5067 125.711 81.0533 125.711 79.24C125.711 77.4267 125.191 75.9867 124.151 74.92C123.138 73.8267 121.831 73.28 120.231 73.28C118.631 73.28 117.311 73.8267 116.271 74.92C115.258 75.9867 114.751 77.4267 114.751 79.24C114.751 81.0533 115.258 82.5067 116.271 83.6C117.311 84.6667 118.631 85.2 120.231 85.2ZM144.937 68.16C148.27 68.16 150.83 68.96 152.617 70.56C154.403 72.1333 155.297 74.52 155.297 77.72V90H149.457V87.32C148.283 89.32 146.097 90.32 142.897 90.32C141.243 90.32 139.803 90.04 138.577 89.48C137.377 88.92 136.457 88.1467 135.817 87.16C135.177 86.1733 134.857 85.0533 134.857 83.8C134.857 81.8 135.603 80.2267 137.097 79.08C138.617 77.9333 140.95 77.36 144.097 77.36H149.057C149.057 76 148.643 74.96 147.817 74.24C146.99 73.4933 145.75 73.12 144.097 73.12C142.95 73.12 141.817 73.3067 140.697 73.68C139.603 74.0267 138.67 74.5067 137.897 75.12L135.657 70.76C136.83 69.9333 138.23 69.2933 139.857 68.84C141.51 68.3867 143.203 68.16 144.937 68.16ZM144.457 86.12C145.523 86.12 146.47 85.88 147.297 85.4C148.123 84.8933 148.71 84.16 149.057 83.2V81H144.777C142.217 81 140.937 81.84 140.937 83.52C140.937 84.32 141.243 84.96 141.857 85.44C142.497 85.8933 143.363 86.12 144.457 86.12ZM174.064 68.16C176.064 68.16 177.877 68.6267 179.504 69.56C181.157 70.4667 182.451 71.76 183.384 73.44C184.317 75.0933 184.784 77.0267 184.784 79.24C184.784 81.4533 184.317 83.4 183.384 85.08C182.451 86.7333 181.157 88.0267 179.504 88.96C177.877 89.8667 176.064 90.32 174.064 90.32C171.317 90.32 169.157 89.4533 167.584 87.72V97.76H161.344V68.48H167.304V70.96C168.851 69.0933 171.104 68.16 174.064 68.16ZM172.984 85.2C174.584 85.2 175.891 84.6667 176.904 83.6C177.944 82.5067 178.464 81.0533 178.464 79.24C178.464 77.4267 177.944 75.9867 176.904 74.92C175.891 73.8267 174.584 73.28 172.984 73.28C171.384 73.28 170.064 73.8267 169.024 74.92C168.011 75.9867 167.504 77.4267 167.504 79.24C167.504 81.0533 168.011 82.5067 169.024 83.6C170.064 84.6667 171.384 85.2 172.984 85.2ZM210.441 79.32C210.441 79.4 210.401 79.96 210.321 81H194.041C194.335 82.3333 195.028 83.3867 196.121 84.16C197.215 84.9333 198.575 85.32 200.201 85.32C201.321 85.32 202.308 85.16 203.161 84.84C204.041 84.4933 204.855 83.96 205.601 83.24L208.921 86.84C206.895 89.16 203.935 90.32 200.041 90.32C197.615 90.32 195.468 89.8533 193.601 88.92C191.735 87.96 190.295 86.64 189.281 84.96C188.268 83.28 187.761 81.3733 187.761 79.24C187.761 77.1333 188.255 75.24 189.241 73.56C190.255 71.8533 191.628 70.5333 193.361 69.6C195.121 68.64 197.081 68.16 199.241 68.16C201.348 68.16 203.255 68.6133 204.961 69.52C206.668 70.4267 208.001 71.7333 208.961 73.44C209.948 75.12 210.441 77.08 210.441 79.32ZM199.281 72.88C197.868 72.88 196.681 73.28 195.721 74.08C194.761 74.88 194.175 75.9733 193.961 77.36H204.561C204.348 76 203.761 74.92 202.801 74.12C201.841 73.2933 200.668 72.88 199.281 72.88ZM220.956 71.32C221.702 70.28 222.702 69.4933 223.956 68.96C225.236 68.4267 226.702 68.16 228.356 68.16V73.92C227.662 73.8667 227.196 73.84 226.956 73.84C225.169 73.84 223.769 74.3467 222.756 75.36C221.742 76.3467 221.236 77.84 221.236 79.84V90H214.996V68.48H220.956V71.32ZM242.671 90.32C240.377 90.32 238.311 89.8533 236.471 88.92C234.657 87.96 233.231 86.64 232.191 84.96C231.177 83.28 230.671 81.3733 230.671 79.24C230.671 77.1067 231.177 75.2 232.191 73.52C233.231 71.84 234.657 70.5333 236.471 69.6C238.311 68.64 240.377 68.16 242.671 68.16C244.937 68.16 246.911 68.64 248.591 69.6C250.297 70.5333 251.537 71.88 252.311 73.64L247.471 76.24C246.351 74.2667 244.737 73.28 242.631 73.28C241.004 73.28 239.657 73.8133 238.591 74.88C237.524 75.9467 236.991 77.4 236.991 79.24C236.991 81.08 237.524 82.5333 238.591 83.6C239.657 84.6667 241.004 85.2 242.631 85.2C244.764 85.2 246.377 84.2133 247.471 82.24L252.311 84.88C251.537 86.5867 250.297 87.92 248.591 88.88C246.911 89.84 244.937 90.32 242.671 90.32ZM277.351 68.48L267.631 91.32C266.644 93.8 265.418 95.5467 263.951 96.56C262.511 97.5733 260.764 98.08 258.711 98.08C257.591 98.08 256.484 97.9067 255.391 97.56C254.298 97.2133 253.404 96.7333 252.711 96.12L254.991 91.68C255.471 92.1067 256.018 92.44 256.631 92.68C257.271 92.92 257.898 93.04 258.511 93.04C259.364 93.04 260.058 92.8267 260.591 92.4C261.124 92 261.604 91.32 262.031 90.36L262.111 90.16L252.791 68.48H259.231L265.271 83.08L271.351 68.48H277.351ZM290.111 90.32C287.818 90.32 285.751 89.8533 283.911 88.92C282.098 87.96 280.671 86.64 279.631 84.96C278.618 83.28 278.111 81.3733 278.111 79.24C278.111 77.1067 278.618 75.2 279.631 73.52C280.671 71.84 282.098 70.5333 283.911 69.6C285.751 68.64 287.818 68.16 290.111 68.16C292.378 68.16 294.351 68.64 296.031 69.6C297.738 70.5333 298.978 71.88 299.751 73.64L294.911 76.24C293.791 74.2667 292.178 73.28 290.071 73.28C288.445 73.28 287.098 73.8133 286.031 74.88C284.965 75.9467 284.431 77.4 284.431 79.24C284.431 81.08 284.965 82.5333 286.031 83.6C287.098 84.6667 288.445 85.2 290.071 85.2C292.205 85.2 293.818 84.2133 294.911 82.24L299.751 84.88C298.978 86.5867 297.738 87.92 296.031 88.88C294.351 89.84 292.378 90.32 290.111 90.32ZM303.588 60.32H309.828V90H303.588V60.32ZM337.099 79.32C337.099 79.4 337.059 79.96 336.979 81H320.699C320.992 82.3333 321.686 83.3867 322.779 84.16C323.872 84.9333 325.232 85.32 326.859 85.32C327.979 85.32 328.966 85.16 329.819 84.84C330.699 84.4933 331.512 83.96 332.259 83.24L335.579 86.84C333.552 89.16 330.592 90.32 326.699 90.32C324.272 90.32 322.126 89.8533 320.259 88.92C318.392 87.96 316.952 86.64 315.939 84.96C314.926 83.28 314.419 81.3733 314.419 79.24C314.419 77.1333 314.912 75.24 315.899 73.56C316.912 71.8533 318.286 70.5333 320.019 69.6C321.779 68.64 323.739 68.16 325.899 68.16C328.006 68.16 329.912 68.6133 331.619 69.52C333.326 70.4267 334.659 71.7333 335.619 73.44C336.606 75.12 337.099 77.08 337.099 79.32ZM325.939 72.88C324.526 72.88 323.339 73.28 322.379 74.08C321.419 74.88 320.832 75.9733 320.619 77.36H331.219C331.006 76 330.419 74.92 329.459 74.12C328.499 73.2933 327.326 72.88 325.939 72.88ZM344.013 90.32C342.92 90.32 342 89.9467 341.253 89.2C340.507 88.4533 340.133 87.52 340.133 86.4C340.133 85.2533 340.507 84.3333 341.253 83.64C342 82.92 342.92 82.56 344.013 82.56C345.107 82.56 346.027 82.92 346.773 83.64C347.52 84.3333 347.893 85.2533 347.893 86.4C347.893 87.52 347.52 88.4533 346.773 89.2C346.027 89.9467 345.107 90.32 344.013 90.32ZM352.522 68.48H358.762V90H352.522V68.48ZM355.642 65.48C354.496 65.48 353.562 65.1467 352.842 64.48C352.122 63.8133 351.762 62.9867 351.762 62C351.762 61.0133 352.122 60.1867 352.842 59.52C353.562 58.8533 354.496 58.52 355.642 58.52C356.789 58.52 357.722 58.84 358.442 59.48C359.162 60.12 359.522 60.92 359.522 61.88C359.522 62.92 359.162 63.7867 358.442 64.48C357.722 65.1467 356.789 65.48 355.642 65.48ZM378.033 68.16C380.7 68.16 382.847 68.96 384.473 70.56C386.127 72.16 386.953 74.5333 386.953 77.68V90H380.713V78.64C380.713 76.9333 380.34 75.6667 379.593 74.84C378.847 73.9867 377.767 73.56 376.353 73.56C374.78 73.56 373.527 74.0533 372.593 75.04C371.66 76 371.193 77.44 371.193 79.36V90H364.953V68.48H370.913V71C371.74 70.0933 372.767 69.4 373.993 68.92C375.22 68.4133 376.567 68.16 378.033 68.16Z" fill="#62AB45"/>
</svg>
